<mxfile host="app.diagrams.net" modified="2022-10-12T02:54:39.265Z" agent="5.0 (Macintosh; Intel Mac OS X 10_15_7) AppleWebKit/537.36 (KHTML, like Gecko) Chrome/105.0.0.0 Safari/537.36" etag="NHC3JVlrGhJ7rPQVWwKK" version="20.3.0" type="github">
  <diagram id="y6rUdTtyMNl11_2qxYwe" name="第 1 页">
    <mxGraphModel dx="1299" dy="869" grid="0" gridSize="10" guides="1" tooltips="1" connect="1" arrows="1" fold="1" page="1" pageScale="1" pageWidth="3300" pageHeight="4681" math="0" shadow="0">
      <root>
        <mxCell id="0" />
        <mxCell id="1" parent="0" />
        <mxCell id="pZO6VI2alQtsUPqKTAt9-1" value="rex-edge-service" style="rounded=1;whiteSpace=wrap;html=1;" vertex="1" parent="1">
          <mxGeometry x="1060" y="2070" width="120" height="60" as="geometry" />
        </mxCell>
        <mxCell id="pZO6VI2alQtsUPqKTAt9-2" value="mysql" style="shape=cylinder3;whiteSpace=wrap;html=1;boundedLbl=1;backgroundOutline=1;size=15;" vertex="1" parent="1">
          <mxGeometry x="1065" y="2200" width="110" height="80" as="geometry" />
        </mxCell>
        <mxCell id="pZO6VI2alQtsUPqKTAt9-3" value="" style="endArrow=classic;html=1;rounded=0;exitX=0.5;exitY=1;exitDx=0;exitDy=0;" edge="1" parent="1" source="pZO6VI2alQtsUPqKTAt9-1" target="pZO6VI2alQtsUPqKTAt9-2">
          <mxGeometry width="50" height="50" relative="1" as="geometry">
            <mxPoint x="1300" y="2220" as="sourcePoint" />
            <mxPoint x="1350" y="2170" as="targetPoint" />
          </mxGeometry>
        </mxCell>
        <mxCell id="pZO6VI2alQtsUPqKTAt9-4" value="mysqldump" style="text;html=1;align=center;verticalAlign=middle;resizable=0;points=[];autosize=1;strokeColor=none;fillColor=none;" vertex="1" parent="1">
          <mxGeometry x="1130" y="2150" width="80" height="30" as="geometry" />
        </mxCell>
        <mxCell id="pZO6VI2alQtsUPqKTAt9-17" value="" style="edgeStyle=orthogonalEdgeStyle;rounded=0;orthogonalLoop=1;jettySize=auto;html=1;" edge="1" parent="1" source="pZO6VI2alQtsUPqKTAt9-5" target="pZO6VI2alQtsUPqKTAt9-16">
          <mxGeometry relative="1" as="geometry" />
        </mxCell>
        <mxCell id="pZO6VI2alQtsUPqKTAt9-5" value="oss" style="rounded=1;whiteSpace=wrap;html=1;" vertex="1" parent="1">
          <mxGeometry x="1060" y="1950" width="120" height="60" as="geometry" />
        </mxCell>
        <mxCell id="pZO6VI2alQtsUPqKTAt9-6" value="" style="endArrow=classic;html=1;rounded=0;exitX=0.5;exitY=0;exitDx=0;exitDy=0;entryX=0.5;entryY=1;entryDx=0;entryDy=0;" edge="1" parent="1" source="pZO6VI2alQtsUPqKTAt9-1" target="pZO6VI2alQtsUPqKTAt9-5">
          <mxGeometry width="50" height="50" relative="1" as="geometry">
            <mxPoint x="1280" y="2170" as="sourcePoint" />
            <mxPoint x="1330" y="2120" as="targetPoint" />
          </mxGeometry>
        </mxCell>
        <mxCell id="pZO6VI2alQtsUPqKTAt9-7" value="rex-skyeye-guard" style="rounded=1;whiteSpace=wrap;html=1;" vertex="1" parent="1">
          <mxGeometry x="850" y="2070" width="120" height="60" as="geometry" />
        </mxCell>
        <mxCell id="pZO6VI2alQtsUPqKTAt9-8" value="" style="endArrow=classic;html=1;rounded=0;exitX=1;exitY=0.5;exitDx=0;exitDy=0;entryX=0;entryY=0.5;entryDx=0;entryDy=0;" edge="1" parent="1" source="pZO6VI2alQtsUPqKTAt9-7" target="pZO6VI2alQtsUPqKTAt9-1">
          <mxGeometry width="50" height="50" relative="1" as="geometry">
            <mxPoint x="760" y="2270" as="sourcePoint" />
            <mxPoint x="810" y="2220" as="targetPoint" />
          </mxGeometry>
        </mxCell>
        <mxCell id="pZO6VI2alQtsUPqKTAt9-9" value="通过TOP接口&lt;br&gt;拉取配置" style="text;html=1;align=center;verticalAlign=middle;resizable=0;points=[];autosize=1;strokeColor=none;fillColor=none;" vertex="1" parent="1">
          <mxGeometry x="965" y="2060" width="100" height="40" as="geometry" />
        </mxCell>
        <mxCell id="pZO6VI2alQtsUPqKTAt9-12" value="" style="edgeStyle=orthogonalEdgeStyle;rounded=0;orthogonalLoop=1;jettySize=auto;html=1;" edge="1" parent="1" source="pZO6VI2alQtsUPqKTAt9-10" target="pZO6VI2alQtsUPqKTAt9-7">
          <mxGeometry relative="1" as="geometry" />
        </mxCell>
        <mxCell id="pZO6VI2alQtsUPqKTAt9-10" value="rex-config" style="rounded=1;whiteSpace=wrap;html=1;" vertex="1" parent="1">
          <mxGeometry x="650" y="2070" width="120" height="60" as="geometry" />
        </mxCell>
        <mxCell id="pZO6VI2alQtsUPqKTAt9-13" value="配置要&lt;br&gt;dump哪些表" style="text;html=1;align=center;verticalAlign=middle;resizable=0;points=[];autosize=1;strokeColor=none;fillColor=none;" vertex="1" parent="1">
          <mxGeometry x="760" y="2060" width="90" height="40" as="geometry" />
        </mxCell>
        <mxCell id="pZO6VI2alQtsUPqKTAt9-14" value="上传" style="text;html=1;align=center;verticalAlign=middle;resizable=0;points=[];autosize=1;strokeColor=none;fillColor=none;" vertex="1" parent="1">
          <mxGeometry x="1125" y="2025" width="50" height="30" as="geometry" />
        </mxCell>
        <mxCell id="pZO6VI2alQtsUPqKTAt9-15" value="&lt;h1&gt;oss文件存储格式&lt;/h1&gt;&lt;div&gt;文件存储在rexpos-guard这个bucket下，以&lt;/div&gt;&lt;div&gt;mysqldump/ds=${bizdate}/${merchantCode}_${companyCode}_${shopCode}.sql&lt;/div&gt;&lt;div&gt;路径方式存储&lt;/div&gt;" style="text;html=1;strokeColor=none;fillColor=none;spacing=5;spacingTop=-20;whiteSpace=wrap;overflow=hidden;rounded=0;" vertex="1" parent="1">
          <mxGeometry x="890" y="1800" width="530" height="120" as="geometry" />
        </mxCell>
        <mxCell id="pZO6VI2alQtsUPqKTAt9-16" value="ODPS" style="rounded=1;whiteSpace=wrap;html=1;" vertex="1" parent="1">
          <mxGeometry x="1300" y="1950" width="120" height="60" as="geometry" />
        </mxCell>
        <mxCell id="pZO6VI2alQtsUPqKTAt9-18" value="max-compute&lt;br&gt;外部表直接读取oss" style="text;html=1;align=center;verticalAlign=middle;resizable=0;points=[];autosize=1;strokeColor=none;fillColor=none;" vertex="1" parent="1">
          <mxGeometry x="1170" y="1930" width="130" height="40" as="geometry" />
        </mxCell>
      </root>
    </mxGraphModel>
  </diagram>
</mxfile>
